<svg width="192" height="83" viewBox="0 0 192 83" fill="none" xmlns="http://www.w3.org/2000/svg">
<path d="M33.2501 44.0906C33.2501 53.0629 27.6225 58.5313 18.544 58.5313C9.46556 58.5313 3.83796 53.0629 3.83796 44.0906V21.7395H9.7841V44.0906C9.7841 50.143 13.0757 53.7531 18.544 53.7531C24.0655 53.7531 27.304 50.0899 27.304 44.0906V21.7395H33.2501V44.0906Z" fill="#1B44D4" fill-opacity="0.93"/>
<path d="M95.8711 57.9209H72.4581V19.5364H95.8711V24.3146H77.661V36.313H94.066V40.9319H77.661V53.0896H95.8711V57.9209ZM113.232 58.4518C105.481 58.4518 99.5878 52.5056 99.5878 44.3828C99.5878 36.2599 105.64 30.3138 113.869 30.3138C121.992 30.3138 127.991 36.2068 127.991 44.1173V57.9209H123.001V53.0896C120.877 56.4874 117.108 58.4518 113.232 58.4518ZM122.576 44.3828C122.576 39.2861 118.86 35.4636 113.763 35.4636C108.719 35.4636 105.003 39.2861 105.003 44.3828C105.003 49.5326 108.719 53.302 113.763 53.302C118.86 53.302 122.576 49.5326 122.576 44.3828ZM145.306 58.4518C138.616 58.4518 133.414 55.4256 132.299 49.4795H137.873C138.776 52.6118 141.855 53.886 145.571 53.886C149.341 53.886 151.942 52.6649 151.942 50.0104C151.942 47.7806 150.137 46.8249 147.589 46.6657L141.643 46.1879C136.864 45.8162 133.095 43.4802 133.095 38.649C133.095 33.1807 137.926 30.3138 144.35 30.3138C150.562 30.3138 155.605 32.9683 156.933 38.8083H151.305C150.19 35.8352 147.111 34.8265 144.35 34.8265C140.846 34.8265 138.404 35.9945 138.404 38.4366C138.404 40.6134 140.103 41.4628 142.704 41.6221L148.491 42.0468C153.853 42.4715 157.251 44.8606 157.251 49.6387C157.251 55.4256 152.101 58.4518 145.306 58.4518Z" fill="#1B44D4" fill-opacity="0.93"/>
<path d="M54.0573 59.2613C50.394 59.2613 46.5715 57.4563 44.6603 54.6425V70.4104H39.3512V45.1923C39.3512 37.1226 45.4035 31.1234 53.5795 31.1234C61.7023 31.1234 67.7546 37.0695 67.7546 45.1923C67.7546 53.3152 61.8085 59.2613 54.0573 59.2613ZM44.7664 45.1923C44.7664 50.289 48.5359 54.1116 53.5795 54.1116C58.57 54.1116 62.3394 50.289 62.3394 45.1923C62.3394 40.0957 58.57 36.2731 53.5795 36.2731C48.5359 36.2731 44.7664 40.0957 44.7664 45.1923Z" fill="#1B44D4" fill-opacity="0.93"/>
<path d="M188.404 50.3651C186.437 56.3279 181.204 59.1326 175.099 59.1838C166.923 59.2524 161.035 53.4617 160.966 45.2329C160.896 36.9511 166.847 31.1141 175.128 31.0446C182.932 30.9791 188.552 36.2943 188.614 43.7267C188.623 44.8416 188.525 45.7981 188.321 46.7555L167.988 46.9261C167.032 46.9341 166.558 47.3628 166.565 48.2122C166.59 51.1321 170.175 54.4999 175.272 54.4572C178.51 54.43 181.739 53.2349 183.149 50.4092L188.404 50.3651ZM175.22 35.6098C170.389 35.6503 166.961 38.4399 166.36 42.7454L182.287 42.6118C182.924 42.6065 183.345 42.2313 183.34 41.5942C183.316 38.7805 180.104 35.5688 175.22 35.6098Z" fill="#1B44D4" fill-opacity="0.93"/>
</svg>
